<svg xmlns="http://www.w3.org/2000/svg" xmlns:xlink="http://www.w3.org/1999/xlink" width="359.975" height="81.48" viewBox="0 0 359.975 81.48">
  <defs>
    <style>
      .cls-1 {
        fill: url(#linear-gradient);
      }
    </style>
    <linearGradient id="linear-gradient" y1="0.5" x2="1" y2="0.5" gradientUnits="objectBoundingBox">
      <stop offset="0" stop-color="#ee6d05"/>
      <stop offset="0.013" stop-color="#ec6b05"/>
      <stop offset="0.257" stop-color="#d74f0e"/>
      <stop offset="0.503" stop-color="#c83b14"/>
      <stop offset="0.75" stop-color="#bf2f18"/>
      <stop offset="1" stop-color="#bd2c1a"/>
    </linearGradient>
  </defs>
  <g id="Groupe_4" data-name="Groupe 4" transform="matrix(0.996, -0.087, 0.087, 0.996, -625.056, -285.269)">
    <path id="Tracé_5" data-name="Tracé 5" class="cls-1" d="M927.283,415.968c-1.912-.293-3.63-.62-5.291-.931l-10.113-1.8-1.986-.335-2.54-.344-5.1-.65c-6.794-.839-13.6-1.571-20.448-2.261-13.71-1.38-27.57-2.591-42.009-4.1-4.982-.663-10.414-1.093-15.9-1.434s-11.09-.52-16.689-.67c-11.206-.263-22.436-.226-32.913-.368l37.523,1.668c6.287.279,12.572.614,18.852.964,3.179.169,6.192.36,9.247.576s6.106.46,9.16.726c12.221,1.067,24.454,2.534,36.641,4.318q9.141,1.34,18.252,2.9l4.553.8c.357.066.8.138,1.087.2l.795.185,1.84.414c2.609.583,5.7,1.271,9.108,1.95a82.144,82.144,0,0,1-8.963,1.9c-1.357.22-2.7.377-3.636.5a40.7,40.7,0,0,1-4.963-.067c-16.3-2.066-31.908-3.946-47.088-5.294.127-.9.374-2.67.5-3.558-5.494,0-10.873-.109-16.17-.273l-7.914-.282q-4.084-.15-8.145-.362c-10.828-.563-21.584-1.311-32.367-1.967-21.565-1.3-43.276-2.154-65.771.047,1.6.483.644,1.215.309,1.8l-.318,0,.318,0c-.3.51-.12.9,2.675.91-2.8-.005-2.977-.4-2.675-.91,22.1-.389,43.429-.22,64.647.5,10.607.363,21.193.845,31.823,1.481l7.986.494c2.722.167,5.15.354,7.759.557q7.707.6,15.614,1.423c-4.11-.361-8.172-.661-12.224-.939l-6.046-.366-3.01-.162-3.14-.142q-12.581-.584-25.156-.917c-16.775-.45-33.558-.622-50.435-.645-33.754-.052-67.9.529-103.27.658l-12.07.045a167.754,167.754,0,0,0-36.323-3.511c3.005-4.508-9.089-13.481,15.075-11.725l-.019-3.6c-24.187-4.455-33.126-17.064-9.127-20.681,26.994-3.633,63.185-.253,96.548-2.077,24.263-.91,48.673-1.74,73.077.41,16.762,1.571,34.336,2.4,51.917,3.521l6.625.429c2.28.16,4.559.322,6.815.511q6.787.546,13.4,1.283c8.808.981,17.36,2.2,25.542,3.725,6,.9,14.345,1.1,21.817,1.443,1.867.085,3.682.18,5.4.3,1.75.119,3.235.248,4.877.443,3.795.439,6.074,1.029,7.415,1.834,3.844,1.676,3.5,3.563,2.505,5.635l-7.267-.8c-1.278-.138-2.663-.272-4.1-.4l-3.649-.316-14.637-1.287-29.467-2.6q-9.047-.977-18.229-1.846c-6.109-.579-12.362-1.091-18.327-1.578-12.065-1.027-24.127-2.016-36.193-3.146,11.786,1.464,23.724,2.579,35.8,3.583l18.425,1.441,18.529,1.546c9.808,1.063,19.507,2.2,29.128,3.359l14.38,1.733,3.581.431,1.985.239,1.946.257,7.166,1.036c-1.044,1.759-2.126,3.594-1.331,5.46l3.3.284c1.825.145,4,.282,5.415.323a40.022,40.022,0,0,1,6.478,3.53l1.787-.983a17.434,17.434,0,0,0,3.384-1.877,6.448,6.448,0,0,1,2.976-1.138,5.044,5.044,0,0,1,3.515,1.114,6.18,6.18,0,0,1,2.272,4.54l-12.33,6.787a13.8,13.8,0,0,1-2.248,1.775,26.861,26.861,0,0,1-2.759,1.594C932.359,414.131,929.919,415.079,927.283,415.968Z"/>
  </g>
</svg>
